<?xml version="1.0" encoding="UTF-8" standalone="no"?>
<svg
   xmlns:dc="http://purl.org/dc/elements/1.1/"
   xmlns:cc="http://creativecommons.org/ns#"
   xmlns:rdf="http://www.w3.org/1999/02/22-rdf-syntax-ns#"
   xmlns:svg="http://www.w3.org/2000/svg"
   xmlns="http://www.w3.org/2000/svg"
   id="svg54"
   version="1.2"
   viewBox="0 0 388.9 206.21"
   height="206.21pt"
   width="388.9pt">
  <metadata
     id="metadata58">
    <rdf:RDF>
      <cc:Work
         rdf:about="">
        <dc:format>image/svg+xml</dc:format>
        <dc:type
           rdf:resource="http://purl.org/dc/dcmitype/StillImage" />
        <dc:title></dc:title>
      </cc:Work>
    </rdf:RDF>
  </metadata>
  <defs
     id="defs17">
    <clipPath
       id="clip1">
      <path
         id="path2"
         d="M 84 172 L 121 172 L 121 206.210938 L 84 206.210938 Z M 84 172 " />
    </clipPath>
    <clipPath
       id="clip2">
      <path
         id="path5"
         d="M 126 172 L 163 172 L 163 206.210938 L 126 206.210938 Z M 126 172 " />
    </clipPath>
    <clipPath
       id="clip3">
      <path
         id="path8"
         d="M 190 172 L 226 172 L 226 206.210938 L 190 206.210938 Z M 190 172 " />
    </clipPath>
    <clipPath
       id="clip4">
      <path
         id="path11"
         d="M 230 173 L 265 173 L 265 206.210938 L 230 206.210938 Z M 230 173 " />
    </clipPath>
    <clipPath
       id="clip5">
      <path
         id="path14"
         d="M 345 172 L 388.898438 172 L 388.898438 206 L 345 206 Z M 345 172 " />
    </clipPath>
  </defs>
  <g
     id="surface572">
    <path
       id="path19"
       d="M 7.875 173.78125 C 8 173.058594 8.257812 172.679688 8.59375 172.679688 C 8.933594 172.679688 9.1875 172.890625 9.738281 173.992188 L 21.296875 197.871094 L 32.8125 173.695312 C 33.109375 173.015625 33.363281 172.679688 33.742188 172.679688 C 34.125 172.679688 34.378906 173.101562 34.507812 173.992188 L 38.359375 200.15625 C 38.738281 202.824219 39.164062 204.050781 40.433594 204.433594 C 41.660156 204.8125 42.507812 204.855469 43.058594 204.855469 C 43.4375 204.855469 43.734375 204.898438 43.734375 205.152344 C 43.734375 205.492188 43.226562 205.617188 42.636719 205.617188 C 41.578125 205.617188 35.734375 205.492188 34.039062 205.363281 C 33.066406 205.277344 32.8125 205.152344 32.8125 204.898438 C 32.8125 204.683594 32.980469 204.558594 33.277344 204.433594 C 33.53125 204.347656 33.660156 203.796875 33.488281 202.609375 L 30.949219 183.984375 L 30.78125 183.984375 L 21.550781 203.203125 C 20.578125 205.191406 20.363281 205.574219 19.984375 205.574219 C 19.601562 205.574219 19.179688 204.726562 18.503906 203.457031 C 17.484375 201.511719 14.140625 195.03125 13.632812 193.847656 C 13.253906 192.957031 10.710938 187.625 9.230469 184.449219 L 9.0625 184.449219 L 6.859375 201.296875 C 6.773438 202.058594 6.730469 202.609375 6.730469 203.289062 C 6.730469 204.09375 7.28125 204.472656 8 204.644531 C 8.765625 204.8125 9.355469 204.855469 9.78125 204.855469 C 10.117188 204.855469 10.414062 204.941406 10.414062 205.152344 C 10.414062 205.53125 10.035156 205.617188 9.398438 205.617188 C 7.621094 205.617188 5.714844 205.492188 4.953125 205.492188 C 4.148438 205.492188 2.117188 205.617188 0.761719 205.617188 C 0.339844 205.617188 0 205.53125 0 205.152344 C 0 204.941406 0.253906 204.855469 0.675781 204.855469 C 1.015625 204.855469 1.3125 204.855469 1.949219 204.726562 C 3.132812 204.472656 3.472656 202.824219 3.683594 201.382812 L 7.875 173.78125 "
       style=" stroke:none;fill-rule:nonzero;fill:rgb(0%,41%,56%);fill-opacity:1;" />
    <path
       id="path21"
       d="M 66.71875 192.449219 C 66.933594 192.449219 66.972656 192.324219 66.933594 192.195312 L 63.121094 181.738281 C 63.078125 181.570312 63.035156 181.359375 62.910156 181.359375 C 62.78125 181.359375 62.699219 181.570312 62.65625 181.738281 L 58.761719 192.152344 C 58.71875 192.324219 58.761719 192.449219 58.929688 192.449219 Z M 58.082031 194.566406 C 57.871094 194.566406 57.785156 194.652344 57.703125 194.90625 L 55.417969 200.960938 C 54.992188 202.019531 54.78125 203.035156 54.78125 203.542969 C 54.78125 204.304688 55.160156 204.855469 56.472656 204.855469 L 57.109375 204.855469 C 57.617188 204.855469 57.746094 204.941406 57.746094 205.191406 C 57.746094 205.53125 57.492188 205.617188 57.023438 205.617188 C 55.667969 205.617188 53.847656 205.492188 52.535156 205.492188 C 52.070312 205.492188 49.742188 205.617188 47.539062 205.617188 C 46.992188 205.617188 46.738281 205.53125 46.738281 205.191406 C 46.738281 204.941406 46.90625 204.855469 47.246094 204.855469 C 47.625 204.855469 48.21875 204.8125 48.558594 204.769531 C 50.503906 204.515625 51.308594 203.078125 52.15625 200.960938 L 62.78125 174.371094 C 63.289062 173.144531 63.546875 172.679688 63.96875 172.679688 C 64.347656 172.679688 64.601562 173.058594 65.027344 174.035156 C 66.042969 176.363281 72.816406 193.636719 75.527344 200.070312 C 77.136719 203.882812 78.363281 204.472656 79.253906 204.683594 C 79.886719 204.8125 80.523438 204.855469 81.03125 204.855469 C 81.367188 204.855469 81.582031 204.898438 81.582031 205.191406 C 81.582031 205.53125 81.199219 205.617188 79.632812 205.617188 C 78.109375 205.617188 75.019531 205.617188 71.632812 205.53125 C 70.871094 205.492188 70.359375 205.492188 70.359375 205.191406 C 70.359375 204.941406 70.53125 204.855469 70.953125 204.8125 C 71.25 204.726562 71.546875 204.347656 71.335938 203.839844 L 67.949219 194.863281 C 67.863281 194.652344 67.734375 194.566406 67.523438 194.566406 L 58.082031 194.566406 "
       style=" stroke:none;fill-rule:nonzero;fill:rgb(0%,41%,56%);fill-opacity:1;" />
    <g
       id="g25"
       clip-rule="nonzero"
       clip-path="url(#clip1)">
      <path
         id="path23"
         d="M 91.992188 199.859375 C 92.078125 203.160156 92.628906 204.261719 93.472656 204.558594 C 94.195312 204.8125 95 204.855469 95.675781 204.855469 C 96.140625 204.855469 96.398438 204.941406 96.398438 205.191406 C 96.398438 205.53125 96.015625 205.617188 95.421875 205.617188 C 92.667969 205.617188 90.976562 205.492188 90.171875 205.492188 C 89.792969 205.492188 87.800781 205.617188 85.601562 205.617188 C 85.050781 205.617188 84.667969 205.574219 84.667969 205.191406 C 84.667969 204.941406 84.921875 204.855469 85.34375 204.855469 C 85.898438 204.855469 86.65625 204.8125 87.25 204.644531 C 88.351562 204.304688 88.523438 203.078125 88.5625 199.394531 L 88.945312 174.328125 C 88.945312 173.484375 89.074219 172.890625 89.496094 172.890625 C 89.960938 172.890625 90.34375 173.441406 91.0625 174.203125 C 91.570312 174.753906 98.003906 181.652344 104.1875 187.792969 C 107.066406 190.671875 112.78125 196.769531 113.5 197.445312 L 113.710938 197.445312 L 113.289062 178.4375 C 113.246094 175.851562 112.867188 175.050781 111.851562 174.625 C 111.214844 174.371094 110.199219 174.371094 109.605469 174.371094 C 109.097656 174.371094 108.929688 174.246094 108.929688 173.992188 C 108.929688 173.652344 109.394531 173.609375 110.027344 173.609375 C 112.230469 173.609375 114.261719 173.734375 115.152344 173.734375 C 115.617188 173.734375 117.226562 173.609375 119.300781 173.609375 C 119.851562 173.609375 120.273438 173.652344 120.273438 173.992188 C 120.273438 174.246094 120.019531 174.371094 119.511719 174.371094 C 119.089844 174.371094 118.75 174.371094 118.242188 174.5 C 117.058594 174.835938 116.71875 175.726562 116.675781 178.097656 L 116.210938 204.8125 C 116.210938 205.746094 116.039062 206.125 115.660156 206.125 C 115.195312 206.125 114.6875 205.660156 114.222656 205.191406 C 111.554688 202.652344 106.132812 197.109375 101.730469 192.746094 C 97.117188 188.175781 92.417969 182.882812 91.65625 182.078125 L 91.527344 182.078125 L 91.992188 199.859375 "
         style=" stroke:none;fill-rule:nonzero;fill:rgb(0%,41%,56%);fill-opacity:1;" />
    </g>
    <g
       id="g29"
       clip-rule="nonzero"
       clip-path="url(#clip2)">
      <path
         id="path27"
         d="M 133.769531 199.859375 C 133.855469 203.160156 134.40625 204.261719 135.25 204.558594 C 135.972656 204.8125 136.773438 204.855469 137.453125 204.855469 C 137.917969 204.855469 138.171875 204.941406 138.171875 205.191406 C 138.171875 205.53125 137.792969 205.617188 137.199219 205.617188 C 134.445312 205.617188 132.753906 205.492188 131.949219 205.492188 C 131.566406 205.492188 129.578125 205.617188 127.378906 205.617188 C 126.824219 205.617188 126.445312 205.574219 126.445312 205.191406 C 126.445312 204.941406 126.699219 204.855469 127.121094 204.855469 C 127.671875 204.855469 128.4375 204.8125 129.027344 204.644531 C 130.128906 204.304688 130.296875 203.078125 130.339844 199.394531 L 130.722656 174.328125 C 130.722656 173.484375 130.847656 172.890625 131.269531 172.890625 C 131.738281 172.890625 132.117188 173.441406 132.839844 174.203125 C 133.347656 174.753906 139.78125 181.652344 145.964844 187.792969 C 148.84375 190.671875 154.558594 196.769531 155.277344 197.445312 L 155.488281 197.445312 L 155.066406 178.4375 C 155.023438 175.851562 154.640625 175.050781 153.625 174.625 C 152.992188 174.371094 151.976562 174.371094 151.382812 174.371094 C 150.875 174.371094 150.703125 174.246094 150.703125 173.992188 C 150.703125 173.652344 151.171875 173.609375 151.804688 173.609375 C 154.007812 173.609375 156.039062 173.734375 156.929688 173.734375 C 157.394531 173.734375 159.003906 173.609375 161.078125 173.609375 C 161.628906 173.609375 162.050781 173.652344 162.050781 173.992188 C 162.050781 174.246094 161.796875 174.371094 161.289062 174.371094 C 160.863281 174.371094 160.527344 174.371094 160.019531 174.5 C 158.832031 174.835938 158.496094 175.726562 158.453125 178.097656 L 157.988281 204.8125 C 157.988281 205.746094 157.816406 206.125 157.4375 206.125 C 156.972656 206.125 156.464844 205.660156 155.996094 205.191406 C 153.328125 202.652344 147.910156 197.109375 143.507812 192.746094 C 138.894531 188.175781 134.191406 182.882812 133.429688 182.078125 L 133.304688 182.078125 L 133.769531 199.859375 "
         style=" stroke:none;fill-rule:nonzero;fill:rgb(0%,41%,56%);fill-opacity:1;" />
    </g>
    <path
       id="path31"
       d="M 173.175781 185.886719 C 173.175781 179.453125 173.175781 178.265625 173.089844 176.914062 C 173.007812 175.472656 172.582031 174.753906 171.652344 174.539062 C 171.1875 174.414062 170.636719 174.371094 170.128906 174.371094 C 169.703125 174.371094 169.449219 174.289062 169.449219 173.949219 C 169.449219 173.695312 169.789062 173.609375 170.464844 173.609375 C 172.074219 173.609375 174.742188 173.734375 175.96875 173.734375 C 177.027344 173.734375 179.527344 173.609375 181.136719 173.609375 C 181.683594 173.609375 182.023438 173.695312 182.023438 173.949219 C 182.023438 174.289062 181.769531 174.371094 181.347656 174.371094 C 180.921875 174.371094 180.585938 174.414062 180.074219 174.5 C 178.933594 174.710938 178.59375 175.429688 178.511719 176.914062 C 178.425781 178.265625 178.425781 179.453125 178.425781 185.886719 L 178.425781 193.339844 C 178.425781 197.445312 178.425781 200.789062 178.59375 202.609375 C 178.722656 203.753906 179.019531 204.515625 180.289062 204.683594 C 180.882812 204.769531 181.8125 204.855469 182.445312 204.855469 C 182.914062 204.855469 183.125 204.980469 183.125 205.191406 C 183.125 205.492188 182.785156 205.617188 182.320312 205.617188 C 179.527344 205.617188 176.859375 205.492188 175.714844 205.492188 C 174.742188 205.492188 172.074219 205.617188 170.382812 205.617188 C 169.832031 205.617188 169.535156 205.492188 169.535156 205.191406 C 169.535156 204.980469 169.703125 204.855469 170.210938 204.855469 C 170.847656 204.855469 171.355469 204.769531 171.734375 204.683594 C 172.582031 204.515625 172.835938 203.796875 172.964844 202.570312 C 173.175781 200.789062 173.175781 197.445312 173.175781 193.339844 L 173.175781 185.886719 "
       style=" stroke:none;fill-rule:nonzero;fill:rgb(0%,41%,56%);fill-opacity:1;" />
    <g
       id="g35"
       clip-rule="nonzero"
       clip-path="url(#clip3)">
      <path
         id="path33"
         d="M 197.644531 199.859375 C 197.726562 203.160156 198.277344 204.261719 199.125 204.558594 C 199.84375 204.8125 200.648438 204.855469 201.324219 204.855469 C 201.789062 204.855469 202.046875 204.941406 202.046875 205.191406 C 202.046875 205.53125 201.664062 205.617188 201.070312 205.617188 C 198.320312 205.617188 196.625 205.492188 195.820312 205.492188 C 195.441406 205.492188 193.449219 205.617188 191.25 205.617188 C 190.699219 205.617188 190.316406 205.574219 190.316406 205.191406 C 190.316406 204.941406 190.570312 204.855469 190.996094 204.855469 C 191.546875 204.855469 192.308594 204.8125 192.898438 204.644531 C 194 204.304688 194.171875 203.078125 194.214844 199.394531 L 194.59375 174.328125 C 194.59375 173.484375 194.722656 172.890625 195.144531 172.890625 C 195.609375 172.890625 195.992188 173.441406 196.710938 174.203125 C 197.21875 174.753906 203.652344 181.652344 209.835938 187.792969 C 212.714844 190.671875 218.429688 196.769531 219.148438 197.445312 L 219.359375 197.445312 L 218.9375 178.4375 C 218.894531 175.851562 218.515625 175.050781 217.496094 174.625 C 216.863281 174.371094 215.847656 174.371094 215.253906 174.371094 C 214.746094 174.371094 214.578125 174.246094 214.578125 173.992188 C 214.578125 173.652344 215.042969 173.609375 215.679688 173.609375 C 217.878906 173.609375 219.910156 173.734375 220.800781 173.734375 C 221.265625 173.734375 222.875 173.609375 224.949219 173.609375 C 225.5 173.609375 225.921875 173.652344 225.921875 173.992188 C 225.921875 174.246094 225.671875 174.371094 225.160156 174.371094 C 224.738281 174.371094 224.398438 174.371094 223.890625 174.5 C 222.707031 174.835938 222.367188 175.726562 222.324219 178.097656 L 221.859375 204.8125 C 221.859375 205.746094 221.6875 206.125 221.308594 206.125 C 220.84375 206.125 220.335938 205.660156 219.867188 205.191406 C 217.199219 202.652344 211.78125 197.109375 207.378906 192.746094 C 202.765625 188.175781 198.0625 182.882812 197.304688 182.078125 L 197.175781 182.078125 L 197.644531 199.859375 "
         style=" stroke:none;fill-rule:nonzero;fill:rgb(0%,41%,56%);fill-opacity:1;" />
    </g>
    <g
       id="g39"
       clip-rule="nonzero"
       clip-path="url(#clip4)">
      <path
         id="path37"
         d="M 261.054688 202.78125 C 261.054688 203.921875 261.011719 204.007812 260.503906 204.304688 C 257.75 205.746094 253.601562 206.210938 250.300781 206.210938 C 239.925781 206.210938 230.738281 201.296875 230.738281 189.613281 C 230.738281 182.839844 234.253906 178.097656 238.105469 175.769531 C 242.171875 173.3125 245.9375 173.015625 249.492188 173.015625 C 252.414062 173.015625 256.140625 173.523438 256.988281 173.695312 C 257.878906 173.863281 259.359375 174.117188 260.332031 174.160156 C 260.84375 174.203125 260.925781 174.371094 260.925781 174.667969 C 260.925781 175.132812 260.628906 176.320312 260.628906 181.613281 C 260.628906 182.289062 260.503906 182.5 260.164062 182.5 C 259.867188 182.5 259.78125 182.289062 259.738281 181.949219 C 259.613281 180.976562 259.402344 179.621094 258.300781 178.4375 C 257.03125 177.082031 253.644531 175.132812 248.859375 175.132812 C 246.53125 175.132812 243.4375 175.304688 240.476562 177.757812 C 238.105469 179.75 236.582031 182.925781 236.582031 188.132812 C 236.582031 197.234375 242.382812 204.050781 251.3125 204.050781 C 252.414062 204.050781 253.898438 204.050781 254.914062 203.585938 C 255.550781 203.289062 255.71875 202.738281 255.71875 202.019531 L 255.71875 198.039062 C 255.71875 195.921875 255.71875 194.3125 255.675781 193.042969 C 255.632812 191.605469 255.253906 190.925781 253.855469 190.628906 C 253.515625 190.546875 252.796875 190.503906 252.203125 190.503906 C 251.824219 190.503906 251.566406 190.417969 251.566406 190.164062 C 251.566406 189.824219 251.863281 189.742188 252.457031 189.742188 C 254.660156 189.742188 257.328125 189.867188 258.597656 189.867188 C 259.910156 189.867188 262.152344 189.742188 263.550781 189.742188 C 264.101562 189.742188 264.394531 189.824219 264.394531 190.164062 C 264.394531 190.417969 264.144531 190.503906 263.847656 190.503906 C 263.507812 190.503906 263.210938 190.546875 262.703125 190.628906 C 261.5625 190.84375 261.136719 191.558594 261.097656 193.042969 C 261.054688 194.3125 261.054688 196.007812 261.054688 198.121094 L 261.054688 202.78125 "
         style=" stroke:none;fill-rule:nonzero;fill:rgb(0%,41%,56%);fill-opacity:1;" />
    </g>
    <path
       id="path41"
       d="M 294.582031 187.074219 C 294.710938 187.074219 294.835938 186.988281 294.835938 186.777344 L 294.835938 185.886719 C 294.835938 179.453125 294.835938 178.265625 294.75 176.914062 C 294.664062 175.472656 294.328125 174.796875 292.933594 174.5 C 292.59375 174.414062 291.871094 174.371094 291.277344 174.371094 C 290.8125 174.371094 290.5625 174.289062 290.5625 173.992188 C 290.5625 173.695312 290.855469 173.609375 291.449219 173.609375 C 293.734375 173.609375 296.402344 173.734375 297.546875 173.734375 C 298.5625 173.734375 301.230469 173.609375 302.882812 173.609375 C 303.472656 173.609375 303.769531 173.695312 303.769531 173.992188 C 303.769531 174.289062 303.515625 174.371094 303.007812 174.371094 C 302.667969 174.371094 302.285156 174.414062 301.777344 174.5 C 300.636719 174.710938 300.300781 175.429688 300.214844 176.914062 C 300.128906 178.265625 300.128906 179.453125 300.128906 185.886719 L 300.128906 193.339844 C 300.128906 197.234375 300.128906 200.578125 300.339844 202.398438 C 300.46875 203.585938 300.722656 204.515625 301.988281 204.683594 C 302.585938 204.769531 303.515625 204.855469 304.148438 204.855469 C 304.617188 204.855469 304.828125 204.980469 304.828125 205.191406 C 304.828125 205.492188 304.488281 205.617188 303.980469 205.617188 C 301.230469 205.617188 298.5625 205.492188 297.378906 205.492188 C 296.402344 205.492188 293.734375 205.617188 292.085938 205.617188 C 291.492188 205.617188 291.195312 205.492188 291.195312 205.191406 C 291.195312 204.980469 291.363281 204.855469 291.871094 204.855469 C 292.507812 204.855469 293.015625 204.769531 293.394531 204.683594 C 294.242188 204.515625 294.453125 203.585938 294.625 202.359375 C 294.835938 200.578125 294.835938 197.234375 294.835938 193.339844 L 294.835938 189.613281 C 294.835938 189.445312 294.710938 189.359375 294.582031 189.359375 L 278.410156 189.359375 C 278.28125 189.359375 278.15625 189.402344 278.15625 189.613281 L 278.15625 193.339844 C 278.15625 197.234375 278.15625 200.578125 278.367188 202.398438 C 278.492188 203.585938 278.746094 204.515625 280.019531 204.683594 C 280.609375 204.769531 281.542969 204.855469 282.179688 204.855469 C 282.644531 204.855469 282.855469 204.980469 282.855469 205.191406 C 282.855469 205.492188 282.515625 205.617188 282.007812 205.617188 C 279.257812 205.617188 276.589844 205.492188 275.402344 205.492188 C 274.429688 205.492188 271.761719 205.617188 270.066406 205.617188 C 269.519531 205.617188 269.222656 205.492188 269.222656 205.191406 C 269.222656 204.980469 269.390625 204.855469 269.898438 204.855469 C 270.535156 204.855469 271.042969 204.769531 271.425781 204.683594 C 272.269531 204.515625 272.480469 203.585938 272.652344 202.359375 C 272.863281 200.578125 272.863281 197.234375 272.863281 193.339844 L 272.863281 185.886719 C 272.863281 179.453125 272.863281 178.265625 272.777344 176.914062 C 272.691406 175.472656 272.355469 174.796875 270.957031 174.5 C 270.617188 174.414062 269.898438 174.371094 269.308594 174.371094 C 268.84375 174.371094 268.585938 174.289062 268.585938 173.992188 C 268.585938 173.695312 268.882812 173.609375 269.476562 173.609375 C 271.761719 173.609375 274.429688 173.734375 275.570312 173.734375 C 276.589844 173.734375 279.257812 173.609375 280.90625 173.609375 C 281.5 173.609375 281.796875 173.695312 281.796875 173.992188 C 281.796875 174.289062 281.542969 174.371094 281.03125 174.371094 C 280.695312 174.371094 280.3125 174.414062 279.808594 174.5 C 278.660156 174.710938 278.324219 175.429688 278.238281 176.914062 C 278.15625 178.265625 278.15625 179.453125 278.15625 185.886719 L 278.15625 186.777344 C 278.15625 186.988281 278.28125 187.074219 278.410156 187.074219 L 294.582031 187.074219 "
       style=" stroke:none;fill-rule:nonzero;fill:rgb(0%,41%,56%);fill-opacity:1;" />
    <path
       id="path43"
       d="M 327.9375 192.449219 C 328.152344 192.449219 328.191406 192.324219 328.152344 192.195312 L 324.339844 181.738281 C 324.300781 181.570312 324.257812 181.359375 324.128906 181.359375 C 324.003906 181.359375 323.917969 181.570312 323.875 181.738281 L 319.980469 192.152344 C 319.9375 192.324219 319.980469 192.449219 320.148438 192.449219 Z M 319.300781 194.566406 C 319.089844 194.566406 319.007812 194.652344 318.921875 194.90625 L 316.636719 200.960938 C 316.210938 202.019531 316 203.035156 316 203.542969 C 316 204.304688 316.382812 204.855469 317.691406 204.855469 L 318.328125 204.855469 C 318.835938 204.855469 318.964844 204.941406 318.964844 205.191406 C 318.964844 205.53125 318.710938 205.617188 318.242188 205.617188 C 316.890625 205.617188 315.066406 205.492188 313.757812 205.492188 C 313.289062 205.492188 310.960938 205.617188 308.761719 205.617188 C 308.210938 205.617188 307.953125 205.53125 307.953125 205.191406 C 307.953125 204.941406 308.125 204.855469 308.464844 204.855469 C 308.847656 204.855469 309.4375 204.8125 309.777344 204.769531 C 311.722656 204.515625 312.527344 203.078125 313.375 200.960938 L 324.003906 174.371094 C 324.511719 173.144531 324.765625 172.679688 325.1875 172.679688 C 325.566406 172.679688 325.820312 173.058594 326.246094 174.035156 C 327.261719 176.363281 334.035156 193.636719 336.746094 200.070312 C 338.355469 203.882812 339.582031 204.472656 340.472656 204.683594 C 341.105469 204.8125 341.742188 204.855469 342.25 204.855469 C 342.589844 204.855469 342.800781 204.898438 342.800781 205.191406 C 342.800781 205.53125 342.417969 205.617188 340.851562 205.617188 C 339.328125 205.617188 336.238281 205.617188 332.851562 205.53125 C 332.089844 205.492188 331.578125 205.492188 331.578125 205.191406 C 331.578125 204.941406 331.75 204.855469 332.175781 204.8125 C 332.46875 204.726562 332.765625 204.347656 332.554688 203.839844 L 329.167969 194.863281 C 329.082031 194.652344 328.953125 194.566406 328.742188 194.566406 L 319.300781 194.566406 "
       style=" stroke:none;fill-rule:nonzero;fill:rgb(0%,41%,56%);fill-opacity:1;" />
    <g
       id="g47"
       clip-rule="nonzero"
       clip-path="url(#clip5)">
      <path
         id="path45"
         d="M 353.039062 173.78125 C 353.171875 173.058594 353.421875 172.679688 353.761719 172.679688 C 354.101562 172.679688 354.355469 172.890625 354.902344 173.992188 L 366.464844 197.871094 L 377.980469 173.695312 C 378.273438 173.015625 378.527344 172.679688 378.910156 172.679688 C 379.289062 172.679688 379.546875 173.101562 379.671875 173.992188 L 383.523438 200.15625 C 383.90625 202.824219 384.328125 204.050781 385.601562 204.433594 C 386.828125 204.8125 387.675781 204.855469 388.226562 204.855469 C 388.605469 204.855469 388.902344 204.898438 388.902344 205.152344 C 388.902344 205.492188 388.394531 205.617188 387.800781 205.617188 C 386.742188 205.617188 380.898438 205.492188 379.207031 205.363281 C 378.230469 205.277344 377.980469 205.152344 377.980469 204.898438 C 377.980469 204.683594 378.148438 204.558594 378.441406 204.433594 C 378.699219 204.347656 378.824219 203.796875 378.65625 202.609375 L 376.113281 183.984375 L 375.945312 183.984375 L 366.71875 203.203125 C 365.742188 205.191406 365.53125 205.574219 365.148438 205.574219 C 364.769531 205.574219 364.347656 204.726562 363.667969 203.457031 C 362.652344 201.511719 359.308594 195.03125 358.800781 193.847656 C 358.417969 192.957031 355.878906 187.625 354.394531 184.449219 L 354.226562 184.449219 L 352.023438 201.296875 C 351.941406 202.058594 351.898438 202.609375 351.898438 203.289062 C 351.898438 204.09375 352.449219 204.472656 353.171875 204.644531 C 353.929688 204.8125 354.523438 204.855469 354.945312 204.855469 C 355.285156 204.855469 355.582031 204.941406 355.582031 205.152344 C 355.582031 205.53125 355.199219 205.617188 354.566406 205.617188 C 352.785156 205.617188 350.882812 205.492188 350.121094 205.492188 C 349.316406 205.492188 347.28125 205.617188 345.929688 205.617188 C 345.503906 205.617188 345.167969 205.53125 345.167969 205.152344 C 345.167969 204.941406 345.421875 204.855469 345.84375 204.855469 C 346.183594 204.855469 346.480469 204.855469 347.113281 204.726562 C 348.300781 204.472656 348.640625 202.824219 348.851562 201.382812 L 353.039062 173.78125 "
         style=" stroke:none;fill-rule:nonzero;fill:rgb(0%,41%,56%);fill-opacity:1;" />
    </g>
    <path
       id="path49"
       d="M 213.382812 39.453125 C 113.769531 52.171875 87.496094 136.988281 84.558594 147.785156 C 97.054688 134.761719 127.097656 106.480469 175.285156 89.445312 L 175.285156 66.949219 L 217.625 66.949219 L 217.625 77.457031 C 318.234375 48.074219 328.808594 0 328.808594 0 C 328.808594 0 300.769531 28.300781 213.382812 39.453125 Z M 206.03125 78.515625 L 186.789062 78.515625 L 186.789062 85.703125 C 190.65625 84.554688 194.617188 83.480469 198.695312 82.496094 C 201.191406 81.894531 203.628906 81.277344 206.03125 80.652344 Z M 217.625 86.90625 L 217.625 109.289062 L 175.285156 109.289062 L 175.285156 99.101562 C 113.585938 121.867188 80.914062 163.273438 80.667969 163.363281 C 83 162.523438 111.882812 139.722656 201.398438 130.21875 C 282.179688 121.644531 307.714844 41.910156 307.714844 41.910156 C 307.714844 41.910156 285.609375 67.648438 217.625 86.90625 Z M 186.789062 97.761719 L 206.03125 97.761719 L 206.03125 90.007812 C 204.527344 90.386719 203.011719 90.765625 201.46875 91.136719 C 196.421875 92.355469 191.53125 93.714844 186.789062 95.1875 L 186.789062 97.761719 "
       style=" stroke:none;fill-rule:nonzero;fill:rgb(0%,41%,56%);fill-opacity:1;" />
    <path
       id="path51"
       d="M 206.070312 97.710938 L 186.820312 97.710938 L 186.820312 78.460938 L 206.070312 78.460938 L 206.070312 97.710938 "
       style=" stroke:none;fill-rule:nonzero;fill:rgb(0%,41%,56%);fill-opacity:1;" />
  </g>
</svg>
